<svg xmlns='http://www.w3.org/2000/svg' xmlns:xlink='http://www.w3.org/1999/xlink' width='576' height='180' viewBox='0 0 576 180'><text x='244' y='14' font-family='DejaVu Sans' font-size='12'>torsion-16</text><svg x='0' y='0' width='224' height='180' viewBox='0 0 224 180'>
<!-- END OF HEADER -->
<rect style='opacity:1.0;fill:#FFFFFF;stroke:none' width='224.0' height='180.0' x='0.0' y='0.0'> </rect>
<path class='bond-6 atom-5 atom-6' d='M 128.0,93.6 L 130.7,98.4 L 118.3,105.6 L 115.5,100.8 Z' style='fill:#FF7F7F;fill-rule:evenodd;fill-opacity:1;stroke:#FF7F7F;stroke-width:0.0px;stroke-linecap:butt;stroke-linejoin:miter;stroke-miterlimit:10;stroke-opacity:1;' />
<path class='bond-0 atom-0 atom-1' d='M 81.6,91.2 L 91.3,101.9' style='fill:none;fill-rule:evenodd;stroke:#000000;stroke-width:0.6px;stroke-linecap:butt;stroke-linejoin:miter;stroke-opacity:1' />
<path class='bond-0 atom-0 atom-1' d='M 84.8,90.9 L 91.9,98.8' style='fill:none;fill-rule:evenodd;stroke:#000000;stroke-width:0.6px;stroke-linecap:butt;stroke-linejoin:miter;stroke-opacity:1' />
<path class='bond-1 atom-0 atom-4' d='M 81.6,91.2 L 85.9,83.7' style='fill:none;fill-rule:evenodd;stroke:#000000;stroke-width:0.6px;stroke-linecap:butt;stroke-linejoin:miter;stroke-opacity:1' />
<path class='bond-2 atom-1 atom-2' d='M 91.3,101.9 L 100.2,97.9' style='fill:none;fill-rule:evenodd;stroke:#000000;stroke-width:0.6px;stroke-linecap:butt;stroke-linejoin:miter;stroke-opacity:1' />
<path class='bond-3 atom-2 atom-3' d='M 103.9,91.1 L 103.4,86.7' style='fill:none;fill-rule:evenodd;stroke:#000000;stroke-width:0.6px;stroke-linecap:butt;stroke-linejoin:miter;stroke-opacity:1' />
<path class='bond-4 atom-2 atom-5' d='M 108.6,98.4 L 116.9,103.2' style='fill:none;fill-rule:evenodd;stroke:#000000;stroke-width:0.6px;stroke-linecap:butt;stroke-linejoin:miter;stroke-opacity:1' />
<path class='bond-5 atom-3 atom-4' d='M 98.7,80.8 L 93.0,79.6' style='fill:none;fill-rule:evenodd;stroke:#000000;stroke-width:0.6px;stroke-linecap:butt;stroke-linejoin:miter;stroke-opacity:1' />
<path class='bond-5 atom-3 atom-4' d='M 98.2,83.4 L 92.4,82.1' style='fill:none;fill-rule:evenodd;stroke:#000000;stroke-width:0.6px;stroke-linecap:butt;stroke-linejoin:miter;stroke-opacity:1' />
<path class='bond-6 atom-5 atom-6' d='M 116.9,103.2 L 129.3,96.0' style='fill:none;fill-rule:evenodd;stroke:#000000;stroke-width:0.6px;stroke-linecap:butt;stroke-linejoin:miter;stroke-opacity:1' />
<path class='bond-7 atom-6 atom-7' d='M 129.3,96.0 L 129.3,81.6' style='fill:none;fill-rule:evenodd;stroke:#000000;stroke-width:0.6px;stroke-linecap:butt;stroke-linejoin:miter;stroke-opacity:1' />
<path class='bond-8 atom-7 atom-8' d='M 129.3,81.6 L 141.8,74.4' style='fill:none;fill-rule:evenodd;stroke:#000000;stroke-width:0.6px;stroke-linecap:butt;stroke-linejoin:miter;stroke-opacity:1' />
<path d='M 82.1,91.7 L 81.6,91.2 L 81.8,90.8' style='fill:none;stroke:#000000;stroke-width:0.6px;stroke-linecap:butt;stroke-linejoin:miter;stroke-miterlimit:10;stroke-opacity:1;' />
<path d='M 90.8,101.4 L 91.3,101.9 L 91.7,101.7' style='fill:none;stroke:#000000;stroke-width:0.6px;stroke-linecap:butt;stroke-linejoin:miter;stroke-miterlimit:10;stroke-opacity:1;' />
<path d='M 116.5,103.0 L 116.9,103.2 L 117.5,102.9' style='fill:none;stroke:#000000;stroke-width:0.6px;stroke-linecap:butt;stroke-linejoin:miter;stroke-miterlimit:10;stroke-opacity:1;' />
<path d='M 128.7,96.4 L 129.3,96.0 L 129.3,95.3' style='fill:none;stroke:#000000;stroke-width:0.6px;stroke-linecap:butt;stroke-linejoin:miter;stroke-miterlimit:10;stroke-opacity:1;' />
<path d='M 129.3,82.3 L 129.3,81.6 L 130.0,81.2' style='fill:none;stroke:#000000;stroke-width:0.6px;stroke-linecap:butt;stroke-linejoin:miter;stroke-miterlimit:10;stroke-opacity:1;' />
<path class='atom-2' d='M 107.1 99.6
L 106.2 99.6
L 102.6 94.1
L 102.6 99.6
L 101.7 99.6
L 101.7 92.5
L 102.6 92.5
L 106.2 98.0
L 106.2 92.5
L 107.1 92.5
L 107.1 99.6
' fill='#000000'/>
<path class='atom-3' d='M 105.6 85.3
L 104.7 85.3
L 101.1 79.8
L 101.1 85.3
L 100.2 85.3
L 100.2 78.2
L 101.1 78.2
L 104.7 83.7
L 104.7 78.2
L 105.6 78.2
L 105.6 85.3
' fill='#000000'/>
<path class='atom-4' d='M 91.5 82.3
L 90.6 82.3
L 87.0 76.8
L 87.0 82.3
L 86.1 82.3
L 86.1 75.2
L 87.0 75.2
L 90.6 80.7
L 90.6 75.2
L 91.5 75.2
L 91.5 82.3
' fill='#000000'/>
</svg><svg x='240' y='0' width='336' height='180' viewBox='0 0 336 180'>
 <metadata>
  <rdf:RDF xmlns:dc="http://purl.org/dc/elements/1.1/" xmlns:cc="http://creativecommons.org/ns#" xmlns:rdf="http://www.w3.org/1999/02/22-rdf-syntax-ns#">
   <cc:Work>
    <dc:type rdf:resource="http://purl.org/dc/dcmitype/StillImage"/>
    <dc:date>2025-09-15T17:12:05.050912</dc:date>
    <dc:format>image/svg+xml</dc:format>
    <dc:creator>
     <cc:Agent>
      <dc:title>Matplotlib v3.10.5, https://matplotlib.org/</dc:title>
     </cc:Agent>
    </dc:creator>
   </cc:Work>
  </rdf:RDF>
 </metadata>
 <defs>
  <style type="text/css">*{stroke-linejoin: round; stroke-linecap: butt}</style>
 </defs>
 <g id="p0_figure_1">
  <g id="p0_patch_1">
   <path d="M 0 157.644437 
L 243.258647 157.644437 
L 243.258647 0 
L 0 0 
z
" style="fill: #ffffff"/>
  </g>
  <g id="p0_axes_1">
   <g id="p0_patch_2">
    <path d="M 32.6225 114.189375 
L 227.9225 114.189375 
L 227.9225 10.239375 
L 32.6225 10.239375 
z
" style="fill: #ffffff"/>
   </g>
   <g id="p0_matplotlib.axis_1">
    <g id="p0_xtick_1">
     <g id="p0_line2d_1">
      <defs>
       <path id="p0_mc2da4edb64" d="M 0 0 
L 0 -3.5 
" style="stroke: #000000; stroke-width: 1.5"/>
      </defs>
      <g>
       <use xlink:href="#p0_mc2da4edb64" x="32.6225" y="114.189375" style="stroke: #000000; stroke-width: 1.5"/>
      </g>
     </g>
     <g id="p0_line2d_2">
      <defs>
       <path id="p0_me29b21b5a1" d="M 0 0 
L 0 3.5 
" style="stroke: #000000; stroke-width: 1.5"/>
      </defs>
      <g>
       <use xlink:href="#p0_me29b21b5a1" x="32.6225" y="10.239375" style="stroke: #000000; stroke-width: 1.5"/>
      </g>
     </g>
     <g id="p0_text_1">
      <!-- −180 -->
      <g transform="translate(26.414544 137.525488) rotate(-45) scale(0.08 -0.08)">
       <defs>
        <path id="p0_DejaVuSans-2212" d="M 678 2272 
L 4684 2272 
L 4684 1741 
L 678 1741 
L 678 2272 
z
" transform="scale(0.015625)"/>
        <path id="p0_DejaVuSans-31" d="M 794 531 
L 1825 531 
L 1825 4091 
L 703 3866 
L 703 4441 
L 1819 4666 
L 2450 4666 
L 2450 531 
L 3481 531 
L 3481 0 
L 794 0 
L 794 531 
z
" transform="scale(0.015625)"/>
        <path id="p0_DejaVuSans-38" d="M 2034 2216 
Q 1584 2216 1326 1975 
Q 1069 1734 1069 1313 
Q 1069 891 1326 650 
Q 1584 409 2034 409 
Q 2484 409 2743 651 
Q 3003 894 3003 1313 
Q 3003 1734 2745 1975 
Q 2488 2216 2034 2216 
z
M 1403 2484 
Q 997 2584 770 2862 
Q 544 3141 544 3541 
Q 544 4100 942 4425 
Q 1341 4750 2034 4750 
Q 2731 4750 3128 4425 
Q 3525 4100 3525 3541 
Q 3525 3141 3298 2862 
Q 3072 2584 2669 2484 
Q 3125 2378 3379 2068 
Q 3634 1759 3634 1313 
Q 3634 634 3220 271 
Q 2806 -91 2034 -91 
Q 1263 -91 848 271 
Q 434 634 434 1313 
Q 434 1759 690 2068 
Q 947 2378 1403 2484 
z
M 1172 3481 
Q 1172 3119 1398 2916 
Q 1625 2713 2034 2713 
Q 2441 2713 2670 2916 
Q 2900 3119 2900 3481 
Q 2900 3844 2670 4047 
Q 2441 4250 2034 4250 
Q 1625 4250 1398 4047 
Q 1172 3844 1172 3481 
z
" transform="scale(0.015625)"/>
        <path id="p0_DejaVuSans-30" d="M 2034 4250 
Q 1547 4250 1301 3770 
Q 1056 3291 1056 2328 
Q 1056 1369 1301 889 
Q 1547 409 2034 409 
Q 2525 409 2770 889 
Q 3016 1369 3016 2328 
Q 3016 3291 2770 3770 
Q 2525 4250 2034 4250 
z
M 2034 4750 
Q 2819 4750 3233 4129 
Q 3647 3509 3647 2328 
Q 3647 1150 3233 529 
Q 2819 -91 2034 -91 
Q 1250 -91 836 529 
Q 422 1150 422 2328 
Q 422 3509 836 4129 
Q 1250 4750 2034 4750 
z
" transform="scale(0.015625)"/>
       </defs>
       <use xlink:href="#p0_DejaVuSans-2212"/>
       <use xlink:href="#p0_DejaVuSans-31" transform="translate(83.789062 0)"/>
       <use xlink:href="#p0_DejaVuSans-38" transform="translate(147.412109 0)"/>
       <use xlink:href="#p0_DejaVuSans-30" transform="translate(211.035156 0)"/>
      </g>
     </g>
    </g>
    <g id="p0_xtick_2">
     <g id="p0_line2d_3">
      <g>
       <use xlink:href="#p0_mc2da4edb64" x="81.4475" y="114.189375" style="stroke: #000000; stroke-width: 1.5"/>
      </g>
     </g>
     <g id="p0_line2d_4">
      <g>
       <use xlink:href="#p0_me29b21b5a1" x="81.4475" y="10.239375" style="stroke: #000000; stroke-width: 1.5"/>
      </g>
     </g>
     <g id="p0_text_2">
      <!-- −90 -->
      <g transform="translate(77.039131 133.926314) rotate(-45) scale(0.08 -0.08)">
       <defs>
        <path id="p0_DejaVuSans-39" d="M 703 97 
L 703 672 
Q 941 559 1184 500 
Q 1428 441 1663 441 
Q 2288 441 2617 861 
Q 2947 1281 2994 2138 
Q 2813 1869 2534 1725 
Q 2256 1581 1919 1581 
Q 1219 1581 811 2004 
Q 403 2428 403 3163 
Q 403 3881 828 4315 
Q 1253 4750 1959 4750 
Q 2769 4750 3195 4129 
Q 3622 3509 3622 2328 
Q 3622 1225 3098 567 
Q 2575 -91 1691 -91 
Q 1453 -91 1209 -44 
Q 966 3 703 97 
z
M 1959 2075 
Q 2384 2075 2632 2365 
Q 2881 2656 2881 3163 
Q 2881 3666 2632 3958 
Q 2384 4250 1959 4250 
Q 1534 4250 1286 3958 
Q 1038 3666 1038 3163 
Q 1038 2656 1286 2365 
Q 1534 2075 1959 2075 
z
" transform="scale(0.015625)"/>
       </defs>
       <use xlink:href="#p0_DejaVuSans-2212"/>
       <use xlink:href="#p0_DejaVuSans-39" transform="translate(83.789062 0)"/>
       <use xlink:href="#p0_DejaVuSans-30" transform="translate(147.412109 0)"/>
      </g>
     </g>
    </g>
    <g id="p0_xtick_3">
     <g id="p0_line2d_5">
      <g>
       <use xlink:href="#p0_mc2da4edb64" x="130.2725" y="114.189375" style="stroke: #000000; stroke-width: 1.5"/>
      </g>
     </g>
     <g id="p0_line2d_6">
      <g>
       <use xlink:href="#p0_me29b21b5a1" x="130.2725" y="10.239375" style="stroke: #000000; stroke-width: 1.5"/>
      </g>
     </g>
     <g id="p0_text_3">
      <!-- 0 -->
      <g transform="translate(130.033851 125.586874) rotate(-45) scale(0.08 -0.08)">
       <use xlink:href="#p0_DejaVuSans-30"/>
      </g>
     </g>
    </g>
    <g id="p0_xtick_4">
     <g id="p0_line2d_7">
      <g>
       <use xlink:href="#p0_mc2da4edb64" x="179.0975" y="114.189375" style="stroke: #000000; stroke-width: 1.5"/>
      </g>
     </g>
     <g id="p0_line2d_8">
      <g>
       <use xlink:href="#p0_me29b21b5a1" x="179.0975" y="10.239375" style="stroke: #000000; stroke-width: 1.5"/>
      </g>
     </g>
     <g id="p0_text_4">
      <!-- 90 -->
      <g transform="translate(177.059265 129.186047) rotate(-45) scale(0.08 -0.08)">
       <use xlink:href="#p0_DejaVuSans-39"/>
       <use xlink:href="#p0_DejaVuSans-30" transform="translate(63.623047 0)"/>
      </g>
     </g>
    </g>
    <g id="p0_xtick_5">
     <g id="p0_line2d_9">
      <g>
       <use xlink:href="#p0_mc2da4edb64" x="227.9225" y="114.189375" style="stroke: #000000; stroke-width: 1.5"/>
      </g>
     </g>
     <g id="p0_line2d_10">
      <g>
       <use xlink:href="#p0_me29b21b5a1" x="227.9225" y="10.239375" style="stroke: #000000; stroke-width: 1.5"/>
      </g>
     </g>
     <g id="p0_text_5">
      <!-- 180 -->
      <g transform="translate(224.084678 132.785221) rotate(-45) scale(0.08 -0.08)">
       <use xlink:href="#p0_DejaVuSans-31"/>
       <use xlink:href="#p0_DejaVuSans-38" transform="translate(63.623047 0)"/>
       <use xlink:href="#p0_DejaVuSans-30" transform="translate(127.246094 0)"/>
      </g>
     </g>
    </g>
    <g id="p0_text_6">
     <!-- Angle (°) -->
     <g transform="translate(112.496875 148.780687) scale(0.08 -0.08)">
      <defs>
       <path id="p0_DejaVuSans-41" d="M 2188 4044 
L 1331 1722 
L 3047 1722 
L 2188 4044 
z
M 1831 4666 
L 2547 4666 
L 4325 0 
L 3669 0 
L 3244 1197 
L 1141 1197 
L 716 0 
L 50 0 
L 1831 4666 
z
" transform="scale(0.015625)"/>
       <path id="p0_DejaVuSans-6e" d="M 3513 2113 
L 3513 0 
L 2938 0 
L 2938 2094 
Q 2938 2591 2744 2837 
Q 2550 3084 2163 3084 
Q 1697 3084 1428 2787 
Q 1159 2491 1159 1978 
L 1159 0 
L 581 0 
L 581 3500 
L 1159 3500 
L 1159 2956 
Q 1366 3272 1645 3428 
Q 1925 3584 2291 3584 
Q 2894 3584 3203 3211 
Q 3513 2838 3513 2113 
z
" transform="scale(0.015625)"/>
       <path id="p0_DejaVuSans-67" d="M 2906 1791 
Q 2906 2416 2648 2759 
Q 2391 3103 1925 3103 
Q 1463 3103 1205 2759 
Q 947 2416 947 1791 
Q 947 1169 1205 825 
Q 1463 481 1925 481 
Q 2391 481 2648 825 
Q 2906 1169 2906 1791 
z
M 3481 434 
Q 3481 -459 3084 -895 
Q 2688 -1331 1869 -1331 
Q 1566 -1331 1297 -1286 
Q 1028 -1241 775 -1147 
L 775 -588 
Q 1028 -725 1275 -790 
Q 1522 -856 1778 -856 
Q 2344 -856 2625 -561 
Q 2906 -266 2906 331 
L 2906 616 
Q 2728 306 2450 153 
Q 2172 0 1784 0 
Q 1141 0 747 490 
Q 353 981 353 1791 
Q 353 2603 747 3093 
Q 1141 3584 1784 3584 
Q 2172 3584 2450 3431 
Q 2728 3278 2906 2969 
L 2906 3500 
L 3481 3500 
L 3481 434 
z
" transform="scale(0.015625)"/>
       <path id="p0_DejaVuSans-6c" d="M 603 4863 
L 1178 4863 
L 1178 0 
L 603 0 
L 603 4863 
z
" transform="scale(0.015625)"/>
       <path id="p0_DejaVuSans-65" d="M 3597 1894 
L 3597 1613 
L 953 1613 
Q 991 1019 1311 708 
Q 1631 397 2203 397 
Q 2534 397 2845 478 
Q 3156 559 3463 722 
L 3463 178 
Q 3153 47 2828 -22 
Q 2503 -91 2169 -91 
Q 1331 -91 842 396 
Q 353 884 353 1716 
Q 353 2575 817 3079 
Q 1281 3584 2069 3584 
Q 2775 3584 3186 3129 
Q 3597 2675 3597 1894 
z
M 3022 2063 
Q 3016 2534 2758 2815 
Q 2500 3097 2075 3097 
Q 1594 3097 1305 2825 
Q 1016 2553 972 2059 
L 3022 2063 
z
" transform="scale(0.015625)"/>
       <path id="p0_DejaVuSans-20" transform="scale(0.015625)"/>
       <path id="p0_DejaVuSans-28" d="M 1984 4856 
Q 1566 4138 1362 3434 
Q 1159 2731 1159 2009 
Q 1159 1288 1364 580 
Q 1569 -128 1984 -844 
L 1484 -844 
Q 1016 -109 783 600 
Q 550 1309 550 2009 
Q 550 2706 781 3412 
Q 1013 4119 1484 4856 
L 1984 4856 
z
" transform="scale(0.015625)"/>
       <path id="p0_DejaVuSans-b0" d="M 1600 4347 
Q 1350 4347 1178 4173 
Q 1006 4000 1006 3750 
Q 1006 3503 1178 3333 
Q 1350 3163 1600 3163 
Q 1850 3163 2022 3333 
Q 2194 3503 2194 3750 
Q 2194 3997 2020 4172 
Q 1847 4347 1600 4347 
z
M 1600 4750 
Q 1800 4750 1984 4673 
Q 2169 4597 2303 4453 
Q 2447 4313 2519 4134 
Q 2591 3956 2591 3750 
Q 2591 3338 2302 3052 
Q 2013 2766 1594 2766 
Q 1172 2766 890 3047 
Q 609 3328 609 3750 
Q 609 4169 896 4459 
Q 1184 4750 1600 4750 
z
" transform="scale(0.015625)"/>
       <path id="p0_DejaVuSans-29" d="M 513 4856 
L 1013 4856 
Q 1481 4119 1714 3412 
Q 1947 2706 1947 2009 
Q 1947 1309 1714 600 
Q 1481 -109 1013 -844 
L 513 -844 
Q 928 -128 1133 580 
Q 1338 1288 1338 2009 
Q 1338 2731 1133 3434 
Q 928 4138 513 4856 
z
" transform="scale(0.015625)"/>
      </defs>
      <use xlink:href="#p0_DejaVuSans-41"/>
      <use xlink:href="#p0_DejaVuSans-6e" transform="translate(68.408203 0)"/>
      <use xlink:href="#p0_DejaVuSans-67" transform="translate(131.787109 0)"/>
      <use xlink:href="#p0_DejaVuSans-6c" transform="translate(195.263672 0)"/>
      <use xlink:href="#p0_DejaVuSans-65" transform="translate(223.046875 0)"/>
      <use xlink:href="#p0_DejaVuSans-20" transform="translate(284.570312 0)"/>
      <use xlink:href="#p0_DejaVuSans-28" transform="translate(316.357422 0)"/>
      <use xlink:href="#p0_DejaVuSans-b0" transform="translate(355.371094 0)"/>
      <use xlink:href="#p0_DejaVuSans-29" transform="translate(405.371094 0)"/>
     </g>
    </g>
   </g>
   <g id="p0_matplotlib.axis_2">
    <g id="p0_ytick_1">
     <g id="p0_line2d_11">
      <defs>
       <path id="p0_m80a49751d5" d="M 0 0 
L 3.5 0 
" style="stroke: #000000; stroke-width: 1.5"/>
      </defs>
      <g>
       <use xlink:href="#p0_m80a49751d5" x="32.6225" y="114.189375" style="stroke: #000000; stroke-width: 1.5"/>
      </g>
     </g>
     <g id="p0_line2d_12">
      <defs>
       <path id="p0_me0def429d1" d="M 0 0 
L -3.5 0 
" style="stroke: #000000; stroke-width: 1.5"/>
      </defs>
      <g>
       <use xlink:href="#p0_me0def429d1" x="227.9225" y="114.189375" style="stroke: #000000; stroke-width: 1.5"/>
      </g>
     </g>
     <g id="p0_text_7">
      <!-- 0 -->
      <g transform="translate(24.0325 117.22875) scale(0.08 -0.08)">
       <use xlink:href="#p0_DejaVuSans-30"/>
      </g>
     </g>
    </g>
    <g id="p0_ytick_2">
     <g id="p0_line2d_13">
      <g>
       <use xlink:href="#p0_m80a49751d5" x="32.6225" y="79.539375" style="stroke: #000000; stroke-width: 1.5"/>
      </g>
     </g>
     <g id="p0_line2d_14">
      <g>
       <use xlink:href="#p0_me0def429d1" x="227.9225" y="79.539375" style="stroke: #000000; stroke-width: 1.5"/>
      </g>
     </g>
     <g id="p0_text_8">
      <!-- 7 -->
      <g transform="translate(24.0325 82.57875) scale(0.08 -0.08)">
       <defs>
        <path id="p0_DejaVuSans-37" d="M 525 4666 
L 3525 4666 
L 3525 4397 
L 1831 0 
L 1172 0 
L 2766 4134 
L 525 4134 
L 525 4666 
z
" transform="scale(0.015625)"/>
       </defs>
       <use xlink:href="#p0_DejaVuSans-37"/>
      </g>
     </g>
    </g>
    <g id="p0_ytick_3">
     <g id="p0_line2d_15">
      <g>
       <use xlink:href="#p0_m80a49751d5" x="32.6225" y="44.889375" style="stroke: #000000; stroke-width: 1.5"/>
      </g>
     </g>
     <g id="p0_line2d_16">
      <g>
       <use xlink:href="#p0_me0def429d1" x="227.9225" y="44.889375" style="stroke: #000000; stroke-width: 1.5"/>
      </g>
     </g>
     <g id="p0_text_9">
      <!-- 14 -->
      <g transform="translate(18.9425 47.92875) scale(0.08 -0.08)">
       <defs>
        <path id="p0_DejaVuSans-34" d="M 2419 4116 
L 825 1625 
L 2419 1625 
L 2419 4116 
z
M 2253 4666 
L 3047 4666 
L 3047 1625 
L 3713 1625 
L 3713 1100 
L 3047 1100 
L 3047 0 
L 2419 0 
L 2419 1100 
L 313 1100 
L 313 1709 
L 2253 4666 
z
" transform="scale(0.015625)"/>
       </defs>
       <use xlink:href="#p0_DejaVuSans-31"/>
       <use xlink:href="#p0_DejaVuSans-34" transform="translate(63.623047 0)"/>
      </g>
     </g>
    </g>
    <g id="p0_ytick_4">
     <g id="p0_line2d_17">
      <g>
       <use xlink:href="#p0_m80a49751d5" x="32.6225" y="10.239375" style="stroke: #000000; stroke-width: 1.5"/>
      </g>
     </g>
     <g id="p0_line2d_18">
      <g>
       <use xlink:href="#p0_me0def429d1" x="227.9225" y="10.239375" style="stroke: #000000; stroke-width: 1.5"/>
      </g>
     </g>
     <g id="p0_text_10">
      <!-- 21 -->
      <g transform="translate(18.9425 13.27875) scale(0.08 -0.08)">
       <defs>
        <path id="p0_DejaVuSans-32" d="M 1228 531 
L 3431 531 
L 3431 0 
L 469 0 
L 469 531 
Q 828 903 1448 1529 
Q 2069 2156 2228 2338 
Q 2531 2678 2651 2914 
Q 2772 3150 2772 3378 
Q 2772 3750 2511 3984 
Q 2250 4219 1831 4219 
Q 1534 4219 1204 4116 
Q 875 4013 500 3803 
L 500 4441 
Q 881 4594 1212 4672 
Q 1544 4750 1819 4750 
Q 2544 4750 2975 4387 
Q 3406 4025 3406 3419 
Q 3406 3131 3298 2873 
Q 3191 2616 2906 2266 
Q 2828 2175 2409 1742 
Q 1991 1309 1228 531 
z
" transform="scale(0.015625)"/>
       </defs>
       <use xlink:href="#p0_DejaVuSans-32"/>
       <use xlink:href="#p0_DejaVuSans-31" transform="translate(63.623047 0)"/>
      </g>
     </g>
    </g>
    <g id="p0_text_11">
     <!-- Energy (kJ/mol) -->
     <g transform="translate(13.27875 92.910625) rotate(-90) scale(0.08 -0.08)">
      <defs>
       <path id="p0_DejaVuSans-45" d="M 628 4666 
L 3578 4666 
L 3578 4134 
L 1259 4134 
L 1259 2753 
L 3481 2753 
L 3481 2222 
L 1259 2222 
L 1259 531 
L 3634 531 
L 3634 0 
L 628 0 
L 628 4666 
z
" transform="scale(0.015625)"/>
       <path id="p0_DejaVuSans-72" d="M 2631 2963 
Q 2534 3019 2420 3045 
Q 2306 3072 2169 3072 
Q 1681 3072 1420 2755 
Q 1159 2438 1159 1844 
L 1159 0 
L 581 0 
L 581 3500 
L 1159 3500 
L 1159 2956 
Q 1341 3275 1631 3429 
Q 1922 3584 2338 3584 
Q 2397 3584 2469 3576 
Q 2541 3569 2628 3553 
L 2631 2963 
z
" transform="scale(0.015625)"/>
       <path id="p0_DejaVuSans-79" d="M 2059 -325 
Q 1816 -950 1584 -1140 
Q 1353 -1331 966 -1331 
L 506 -1331 
L 506 -850 
L 844 -850 
Q 1081 -850 1212 -737 
Q 1344 -625 1503 -206 
L 1606 56 
L 191 3500 
L 800 3500 
L 1894 763 
L 2988 3500 
L 3597 3500 
L 2059 -325 
z
" transform="scale(0.015625)"/>
       <path id="p0_DejaVuSans-6b" d="M 581 4863 
L 1159 4863 
L 1159 1991 
L 2875 3500 
L 3609 3500 
L 1753 1863 
L 3688 0 
L 2938 0 
L 1159 1709 
L 1159 0 
L 581 0 
L 581 4863 
z
" transform="scale(0.015625)"/>
       <path id="p0_DejaVuSans-4a" d="M 628 4666 
L 1259 4666 
L 1259 325 
Q 1259 -519 939 -900 
Q 619 -1281 -91 -1281 
L -331 -1281 
L -331 -750 
L -134 -750 
Q 284 -750 456 -515 
Q 628 -281 628 325 
L 628 4666 
z
" transform="scale(0.015625)"/>
       <path id="p0_DejaVuSans-2f" d="M 1625 4666 
L 2156 4666 
L 531 -594 
L 0 -594 
L 1625 4666 
z
" transform="scale(0.015625)"/>
       <path id="p0_DejaVuSans-6d" d="M 3328 2828 
Q 3544 3216 3844 3400 
Q 4144 3584 4550 3584 
Q 5097 3584 5394 3201 
Q 5691 2819 5691 2113 
L 5691 0 
L 5113 0 
L 5113 2094 
Q 5113 2597 4934 2840 
Q 4756 3084 4391 3084 
Q 3944 3084 3684 2787 
Q 3425 2491 3425 1978 
L 3425 0 
L 2847 0 
L 2847 2094 
Q 2847 2600 2669 2842 
Q 2491 3084 2119 3084 
Q 1678 3084 1418 2786 
Q 1159 2488 1159 1978 
L 1159 0 
L 581 0 
L 581 3500 
L 1159 3500 
L 1159 2956 
Q 1356 3278 1631 3431 
Q 1906 3584 2284 3584 
Q 2666 3584 2933 3390 
Q 3200 3197 3328 2828 
z
" transform="scale(0.015625)"/>
       <path id="p0_DejaVuSans-6f" d="M 1959 3097 
Q 1497 3097 1228 2736 
Q 959 2375 959 1747 
Q 959 1119 1226 758 
Q 1494 397 1959 397 
Q 2419 397 2687 759 
Q 2956 1122 2956 1747 
Q 2956 2369 2687 2733 
Q 2419 3097 1959 3097 
z
M 1959 3584 
Q 2709 3584 3137 3096 
Q 3566 2609 3566 1747 
Q 3566 888 3137 398 
Q 2709 -91 1959 -91 
Q 1206 -91 779 398 
Q 353 888 353 1747 
Q 353 2609 779 3096 
Q 1206 3584 1959 3584 
z
" transform="scale(0.015625)"/>
      </defs>
      <use xlink:href="#p0_DejaVuSans-45"/>
      <use xlink:href="#p0_DejaVuSans-6e" transform="translate(63.183594 0)"/>
      <use xlink:href="#p0_DejaVuSans-65" transform="translate(126.5625 0)"/>
      <use xlink:href="#p0_DejaVuSans-72" transform="translate(188.085938 0)"/>
      <use xlink:href="#p0_DejaVuSans-67" transform="translate(227.449219 0)"/>
      <use xlink:href="#p0_DejaVuSans-79" transform="translate(290.925781 0)"/>
      <use xlink:href="#p0_DejaVuSans-20" transform="translate(350.105469 0)"/>
      <use xlink:href="#p0_DejaVuSans-28" transform="translate(381.892578 0)"/>
      <use xlink:href="#p0_DejaVuSans-6b" transform="translate(420.90625 0)"/>
      <use xlink:href="#p0_DejaVuSans-4a" transform="translate(478.816406 0)"/>
      <use xlink:href="#p0_DejaVuSans-2f" transform="translate(508.308594 0)"/>
      <use xlink:href="#p0_DejaVuSans-6d" transform="translate(542 0)"/>
      <use xlink:href="#p0_DejaVuSans-6f" transform="translate(639.412109 0)"/>
      <use xlink:href="#p0_DejaVuSans-6c" transform="translate(700.59375 0)"/>
      <use xlink:href="#p0_DejaVuSans-29" transform="translate(728.376953 0)"/>
     </g>
    </g>
   </g>
   <g id="p0_line2d_19">
    <path d="M 32.6225 25.213003 
L 41.113804 57.485255 
L 49.605109 89.787558 
L 58.096413 106.8918 
L 66.587717 102.433904 
L 75.079022 81.664182 
L 83.570326 56.389612 
L 92.06163 44.063497 
L 100.552935 55.306769 
L 109.044239 80.839147 
L 117.535543 104.881797 
L 126.026848 114.189375 
L 134.518152 104.903398 
L 143.009457 80.875059 
L 151.500761 55.171154 
L 159.992065 43.942152 
L 168.48337 56.461976 
L 176.974674 81.66994 
L 185.465978 102.438005 
L 193.957283 106.876971 
L 202.448587 89.83424 
L 210.939891 57.446298 
L 219.431196 25.253762 
L 227.9225 11.042446 
" clip-path="url(#p0_p250d722e32)" style="fill: none; stroke: #1f77b4; stroke-opacity: 0.8; stroke-width: 2; stroke-linecap: square"/>
   </g>
   <g id="p0_line2d_20">
    <path d="M 32.6225 36.984794 
L 41.113804 68.472831 
L 49.605109 99.249204 
L 58.096413 114.189375 
L 66.587717 107.313286 
L 75.079022 84.386327 
L 83.570326 57.512262 
L 92.06163 43.795893 
L 100.552935 53.189773 
L 109.044239 76.541987 
L 117.535543 98.850894 
L 126.026848 107.515485 
L 134.518152 98.872682 
L 143.009457 76.578479 
L 151.500761 53.053206 
L 159.992065 43.673927 
L 168.48337 57.584232 
L 176.974674 84.392374 
L 185.465978 107.317345 
L 193.957283 114.174877 
L 202.448587 99.294955 
L 210.939891 68.434309 
L 219.431196 37.024994 
L 227.9225 23.019315 
" clip-path="url(#p0_p250d722e32)" style="fill: none; stroke-dasharray: 7.4,3.2; stroke-dashoffset: 0; stroke: #ff7f0e; stroke-opacity: 0.8; stroke-width: 2"/>
   </g>
   <g id="p0_patch_3">
    <path d="M 32.6225 114.189375 
L 32.6225 10.239375 
" style="fill: none; stroke: #000000; stroke-width: 1.5; stroke-linejoin: miter; stroke-linecap: square"/>
   </g>
   <g id="p0_patch_4">
    <path d="M 227.9225 114.189375 
L 227.9225 10.239375 
" style="fill: none; stroke: #000000; stroke-width: 1.5; stroke-linejoin: miter; stroke-linecap: square"/>
   </g>
   <g id="p0_patch_5">
    <path d="M 32.6225 114.189375 
L 227.9225 114.189375 
" style="fill: none; stroke: #000000; stroke-width: 1.5; stroke-linejoin: miter; stroke-linecap: square"/>
   </g>
   <g id="p0_patch_6">
    <path d="M 32.6225 10.239375 
L 227.9225 10.239375 
" style="fill: none; stroke: #000000; stroke-width: 1.5; stroke-linejoin: miter; stroke-linecap: square"/>
   </g>
   <g id="p0_PathCollection_1">
    <defs>
     <path id="p0_mc900aedbea" d="M 0 2.5 
C 0.663008 2.5 1.29895 2.236584 1.767767 1.767767 
C 2.236584 1.29895 2.5 0.663008 2.5 0 
C 2.5 -0.663008 2.236584 -1.29895 1.767767 -1.767767 
C 1.29895 -2.236584 0.663008 -2.5 0 -2.5 
C -0.663008 -2.5 -1.29895 -2.236584 -1.767767 -1.767767 
C -2.236584 -1.29895 -2.5 -0.663008 -2.5 0 
C -2.5 0.663008 -2.236584 1.29895 -1.767767 1.767767 
C -1.29895 2.236584 -0.663008 2.5 0 2.5 
z
" style="stroke: #000000; stroke-opacity: 0.8"/>
    </defs>
    <g clip-path="url(#p0_p250d722e32)">
     <use xlink:href="#p0_mc900aedbea" x="32.6225" y="42.967233" style="fill: #ff7f0e; fill-opacity: 0.8; stroke: #000000; stroke-opacity: 0.8"/>
     <use xlink:href="#p0_mc900aedbea" x="41.113804" y="73.464714" style="fill: #ff7f0e; fill-opacity: 0.8; stroke: #000000; stroke-opacity: 0.8"/>
     <use xlink:href="#p0_mc900aedbea" x="49.605109" y="102.757655" style="fill: #ff7f0e; fill-opacity: 0.8; stroke: #000000; stroke-opacity: 0.8"/>
     <use xlink:href="#p0_mc900aedbea" x="58.096413" y="114.187884" style="fill: #ff7f0e; fill-opacity: 0.8; stroke: #000000; stroke-opacity: 0.8"/>
     <use xlink:href="#p0_mc900aedbea" x="66.587717" y="104.01302" style="fill: #ff7f0e; fill-opacity: 0.8; stroke: #000000; stroke-opacity: 0.8"/>
     <use xlink:href="#p0_mc900aedbea" x="75.079022" y="80.819347" style="fill: #ff7f0e; fill-opacity: 0.8; stroke: #000000; stroke-opacity: 0.8"/>
     <use xlink:href="#p0_mc900aedbea" x="83.570326" y="55.302047" style="fill: #ff7f0e; fill-opacity: 0.8; stroke: #000000; stroke-opacity: 0.8"/>
     <use xlink:href="#p0_mc900aedbea" x="92.06163" y="43.614549" style="fill: #ff7f0e; fill-opacity: 0.8; stroke: #000000; stroke-opacity: 0.8"/>
     <use xlink:href="#p0_mc900aedbea" x="100.552935" y="52.947208" style="fill: #ff7f0e; fill-opacity: 0.8; stroke: #000000; stroke-opacity: 0.8"/>
     <use xlink:href="#p0_mc900aedbea" x="109.044239" y="75.426938" style="fill: #ff7f0e; fill-opacity: 0.8; stroke: #000000; stroke-opacity: 0.8"/>
     <use xlink:href="#p0_mc900aedbea" x="117.535543" y="96.348326" style="fill: #ff7f0e; fill-opacity: 0.8; stroke: #000000; stroke-opacity: 0.8"/>
     <use xlink:href="#p0_mc900aedbea" x="126.026848" y="103.915203" style="fill: #ff7f0e; fill-opacity: 0.8; stroke: #000000; stroke-opacity: 0.8"/>
     <use xlink:href="#p0_mc900aedbea" x="134.518152" y="96.342817" style="fill: #ff7f0e; fill-opacity: 0.8; stroke: #000000; stroke-opacity: 0.8"/>
     <use xlink:href="#p0_mc900aedbea" x="143.009457" y="75.415133" style="fill: #ff7f0e; fill-opacity: 0.8; stroke: #000000; stroke-opacity: 0.8"/>
     <use xlink:href="#p0_mc900aedbea" x="151.500761" y="52.888741" style="fill: #ff7f0e; fill-opacity: 0.8; stroke: #000000; stroke-opacity: 0.8"/>
     <use xlink:href="#p0_mc900aedbea" x="159.992065" y="43.618152" style="fill: #ff7f0e; fill-opacity: 0.8; stroke: #000000; stroke-opacity: 0.8"/>
     <use xlink:href="#p0_mc900aedbea" x="168.48337" y="55.277649" style="fill: #ff7f0e; fill-opacity: 0.8; stroke: #000000; stroke-opacity: 0.8"/>
     <use xlink:href="#p0_mc900aedbea" x="176.974674" y="80.832871" style="fill: #ff7f0e; fill-opacity: 0.8; stroke: #000000; stroke-opacity: 0.8"/>
     <use xlink:href="#p0_mc900aedbea" x="185.465978" y="104.010866" style="fill: #ff7f0e; fill-opacity: 0.8; stroke: #000000; stroke-opacity: 0.8"/>
     <use xlink:href="#p0_mc900aedbea" x="193.957283" y="114.189375" style="fill: #ff7f0e; fill-opacity: 0.8; stroke: #000000; stroke-opacity: 0.8"/>
     <use xlink:href="#p0_mc900aedbea" x="202.448587" y="102.749268" style="fill: #ff7f0e; fill-opacity: 0.8; stroke: #000000; stroke-opacity: 0.8"/>
     <use xlink:href="#p0_mc900aedbea" x="210.939891" y="73.480579" style="fill: #ff7f0e; fill-opacity: 0.8; stroke: #000000; stroke-opacity: 0.8"/>
     <use xlink:href="#p0_mc900aedbea" x="219.431196" y="42.947599" style="fill: #ff7f0e; fill-opacity: 0.8; stroke: #000000; stroke-opacity: 0.8"/>
     <use xlink:href="#p0_mc900aedbea" x="227.9225" y="29.465075" style="fill: #ff7f0e; fill-opacity: 0.8; stroke: #000000; stroke-opacity: 0.8"/>
    </g>
   </g>
  </g>
 </g>
 <defs>
  <clipPath id="p0_p250d722e32">
   <rect x="32.6225" y="10.239375" width="195.3" height="103.95"/>
  </clipPath>
 </defs>
</svg><text x='4' y='16' font-family='DejaVu Sans' font-size='12' font-weight='bold'>q</text></svg>